<svg width="22" height="22" viewBox="0 0 20 20" fill="none" xmlns="http://www.w3.org/2000/svg">
    <path
        d="M20 18.6927C20 18.8488 19.9121 18.9919 19.7363 19.122C19.5605 19.252 19.2904 19.3594 18.9258 19.4439C18.5612 19.5285 18.1868 19.6065 17.8027 19.678C17.4186 19.7496 16.9271 19.8049 16.3281 19.8439C15.7292 19.8829 15.2083 19.9122 14.7656 19.9317C14.3229 19.9512 13.7533 19.9675 13.0566 19.9805C12.36 19.9935 11.8327 20 11.4746 20H8.52539L6.94336 19.9805L5.23438 19.9317L3.67188 19.8439L2.19727 19.678L1.07422 19.4439L0.263672 19.122L0 18.6927C0.0260417 17.548 0.742188 16.5366 2.14844 15.6585C3.55469 14.7805 5.33854 14.1984 7.5 13.9122V13.2683C6.82292 12.9691 6.23698 12.5463 5.74219 12C5.2474 11.4537 4.85677 10.813 4.57031 10.078C4.28385 9.34309 4.07552 8.5561 3.94531 7.71707C3.8151 6.87805 3.75 5.97073 3.75 4.99512C3.75 4.1626 3.91276 3.42114 4.23828 2.77073C4.5638 2.12033 5.01302 1.59675 5.58594 1.2C6.15885 0.803252 6.81641 0.504065 7.55859 0.302439C8.30078 0.100813 9.11458 0 10 0C10.8854 0 11.6992 0.100813 12.4414 0.302439C13.1836 0.504065 13.8411 0.803252 14.4141 1.2C14.987 1.59675 15.4362 2.12033 15.7617 2.77073C16.0872 3.42114 16.25 4.1626 16.25 4.99512C16.25 9.54797 15 12.3187 12.5 13.3073V13.9122C14.6615 14.1984 16.4453 14.7805 17.8516 15.6585C19.2578 16.5366 19.974 17.548 20 18.6927Z"
        fill="black" />
</svg>